# xmcd
#
# Track frame offsets:
#	150
#	20999
#	35011
#	55721
#	80740
#	104002
#	124898
#	147523
#	157271
#	175577
#	206788
#	236637
#	258045
#	272138
#	287164
#
# Disc length: 4136 seconds
#
# Revision: 0
# Processed by: cddbd v1.5.2PL0 Copyright (c) Steve Scherf et al.
# Submitted via: audiograbber 1.83.01
#
DISCID=ea10260f
DTITLE=Bluesberries - live im Dorf '98 Peter's edition
DYEAR=1998
DGENRE=Rock and Soul
TTITLE0=intro
TTITLE1=hold on
TTITLE2=you can leave your head on
TTITLE3=What do you feel
TTITLE4=knock on woods
TTITLE5=ride sally ride
TTITLE6=radar love
TTITLE7=floyd erzählt
TTITLE8=boogaloo
TTITLE9=still got the blues
TTITLE10=sweet home chicago
TTITLE11=twist and shout
TTITLE12=i feel good
TTITLE13=jailhouse rock
TTITLE14=mostard sally (zugabe)
EXTD=
EXTT0=
EXTT1=
EXTT2=
EXTT3=
EXTT4=
EXTT5=
EXTT6=
EXTT7=
EXTT8=
EXTT9=
EXTT10=
EXTT11=
EXTT12=
EXTT13=
EXTT14=
PLAYORDER=
